{
  "asset" : {
    "generator" : "UE Viewer (umodel) build 1579 based",
    "version" : "2.0"
  },
  "scene" : 0,
  "scenes" : [
    {
      "nodes" : [ 0 ]
    }
  ],
  "nodes" : [
    {
      "name" : "SK_Cielle_PPM_S210",
      "mesh" : 0,
      "skin" : 0,
      "children" : [ 1 ]
    },
    {
      "name" : "root",
      "children" : [ 2, 68, 71 ],
      "translation" : [ 0, 0, 0 ],
      "rotation" : [ 3.06162e-17, -0, -0, 1 ]
    },
    {
      "name" : "Bip001",
      "children" : [ 3 ],
      "translation" : [ 2.57707e-09, 0.941146, 0.0116043 ],
      "rotation" : [ -0, 0.707106, -0, -0.707107 ]
    },
    {
      "name" : "Bip001-Pelvis",
      "children" : [ 4, 53, 57, 61 ],
      "translation" : [ -5.77316e-17, 0, -7.6233e-23 ],
      "rotation" : [ 0.5, 0.499999, -0.5, -0.500001 ]
    },
    {
      "name" : "Bip001-Spine",
      "children" : [ 5 ],
      "translation" : [ 0.0748902, -1.52216e-07, -0.00606409 ],
      "rotation" : [ 1.36892e-06, 8.51375e-13, 6.13035e-07, -1 ]
    },
    {
      "name" : "Bip001-Spine1",
      "children" : [ 6 ],
      "translation" : [ 0.071947, -2.2485e-08, 7.04431e-05 ],
      "rotation" : [ -3.28923e-08, 1.47796e-16, 2.80129e-09, -1 ]
    },
    {
      "name" : "Bip001-Spine2",
      "children" : [ 7, 33, 43 ],
      "translation" : [ 0.0884581, -2.72731e-08, 0.000134221 ],
      "rotation" : [ 1.24801e-08, 0.0110635, 1.51596e-07, -0.999939 ]
    },
    {
      "name" : "Bip001-Neck",
      "children" : [ 8 ],
      "translation" : [ 0.161535, -1.88056e-08, 0.00650668 ],
      "rotation" : [ -3.16065e-10, 0.00127149, 3.00656e-09, -0.999999 ]
    },
    {
      "name" : "Bip001-Head",
      "children" : [ 9, 14, 17, 25 ],
      "translation" : [ 0.0595931, 1.20631e-08, 0.00101059 ],
      "rotation" : [ 7.33386e-07, -0.0111291, -2.66415e-08, -0.999938 ]
    },
    {
      "name" : "hair_f_l_01",
      "children" : [ 10 ],
      "translation" : [ 0.0523044, 0.0726145, -0.00448788 ],
      "rotation" : [ -0.773847, 0.0209956, -0.047703, -0.631224 ]
    },
    {
      "name" : "hair_f_l_02",
      "children" : [ 11 ],
      "translation" : [ -0.0432562, -2.35621e-09, 1.10549e-06 ],
      "rotation" : [ 4.69502e-08, -0.100306, -8.81766e-09, -0.994957 ]
    },
    {
      "name" : "hair_f_l_03",
      "children" : [ 12 ],
      "translation" : [ -0.0440727, 1.73033e-07, 3.56036e-08 ],
      "rotation" : [ 2.41955e-07, -0.127395, 4.84052e-06, -0.991852 ]
    },
    {
      "name" : "hair_f_l_04",
      "children" : [ 13 ],
      "translation" : [ -0.0417815, -5.5653e-07, -2.9007e-08 ],
      "rotation" : [ 6.19596e-07, -0.246885, 4.62061e-06, -0.969045 ]
    },
    {
      "name" : "hair_f_l_05",
      "translation" : [ -0.0430889, -1.15649e-06, -1.26484e-07 ],
      "rotation" : [ -9.93209e-07, -1.85602e-06, 1.29558e-07, -1 ]
    },
    {
      "name" : "hair_f_r_01",
      "children" : [ 15 ],
      "translation" : [ 0.034732, -0.0705596, 0.00721762 ],
      "rotation" : [ -0.140316, -0.527927, 0.836816, 0.036647 ]
    },
    {
      "name" : "hair_f_r_02",
      "children" : [ 16 ],
      "translation" : [ 0.0442144, 9.21592e-09, -1.1273e-06 ],
      "rotation" : [ 2.40251e-07, -0.16281, -4.23791e-09, -0.986657 ]
    },
    {
      "name" : "hair_f_r_03",
      "translation" : [ 0.0431089, 1.40936e-07, -9.43713e-07 ],
      "rotation" : [ -1.46294e-07, 1.17287e-06, 3.07127e-07, -1 ]
    },
    {
      "name" : "hair_r_01",
      "children" : [ 18 ],
      "translation" : [ 0.100771, -0.0773698, 0.0207226 ],
      "rotation" : [ 0.144981, -0.691525, -0.624538, 0.332755 ]
    },
    {
      "name" : "hair_r_02",
      "children" : [ 19 ],
      "translation" : [ 0.0606397, -5.17766e-09, 1.20095e-07 ],
      "rotation" : [ -0.0204628, 0.309897, 0.0626294, -0.948484 ]
    },
    {
      "name" : "hair_r_03",
      "children" : [ 20 ],
      "translation" : [ 0.118302, 2.66812e-09, -5.43713e-08 ],
      "rotation" : [ 1.66985e-07, -0.0651558, -3.37919e-08, -0.997875 ]
    },
    {
      "name" : "hair_r_04",
      "children" : [ 21 ],
      "translation" : [ 0.114675, -1.51401e-07, 8.84054e-09 ],
      "rotation" : [ -0.00322407, -0.0952332, -0.0336802, -0.99488 ]
    },
    {
      "name" : "hair_r_05",
      "children" : [ 22 ],
      "translation" : [ 0.143915, 3.01735e-07, 1.27576e-07 ],
      "rotation" : [ 0.000342139, 0.00859309, -0.0397779, -0.999172 ]
    },
    {
      "name" : "hair_r_06",
      "children" : [ 23 ],
      "translation" : [ 0.162639, -1.44027e-07, -9.43617e-08 ],
      "rotation" : [ -0.00345358, 0.0936395, 0.0366982, -0.994924 ]
    },
    {
      "name" : "hair_r_07",
      "children" : [ 24 ],
      "translation" : [ 0.152756, 7.38359e-08, 2.07754e-07 ],
      "rotation" : [ -1.48215e-07, -0.0654726, -1.79133e-08, -0.997854 ]
    },
    {
      "name" : "hair_r_08",
      "translation" : [ 0.191937, 4.07671e-07, -8.61947e-07 ],
      "rotation" : [ -1.48328e-07, -8.96924e-07, -6.04937e-07, -1 ]
    },
    {
      "name" : "hair_l_01",
      "children" : [ 26 ],
      "translation" : [ 0.100771, 0.0773724, 0.0207228 ],
      "rotation" : [ 0.332755, 0.624537, 0.691526, 0.144981 ]
    },
    {
      "name" : "hair_l_02",
      "children" : [ 27 ],
      "translation" : [ 0.0606396, 1.65252e-08, 3.25787e-08 ],
      "rotation" : [ 0.020463, -0.309897, 0.0626292, -0.948484 ]
    },
    {
      "name" : "hair_l_03",
      "children" : [ 28 ],
      "translation" : [ 0.118302, 6.75318e-09, 1.80117e-08 ],
      "rotation" : [ -2.94137e-07, 0.0651559, 1.72077e-08, -0.997875 ]
    },
    {
      "name" : "hair_l_04",
      "children" : [ 29 ],
      "translation" : [ 0.114675, 3.70043e-09, 1.55007e-09 ],
      "rotation" : [ 0.003224, 0.0952331, -0.0336801, -0.99488 ]
    },
    {
      "name" : "hair_l_05",
      "children" : [ 30 ],
      "translation" : [ 0.143915, 6.09325e-09, -8.70592e-08 ],
      "rotation" : [ -0.000342045, -0.00859298, -0.0397781, -0.999171 ]
    },
    {
      "name" : "hair_l_06",
      "children" : [ 31 ],
      "translation" : [ 0.162639, -1.53897e-09, -6.21096e-10 ],
      "rotation" : [ 0.00345402, -0.0936396, 0.0366982, -0.994924 ]
    },
    {
      "name" : "hair_l_07",
      "children" : [ 32 ],
      "translation" : [ 0.152756, -1.48527e-09, -7.5921e-08 ],
      "rotation" : [ -4.41216e-08, 0.0654728, 1.79629e-08, -0.997854 ]
    },
    {
      "name" : "hair_l_08",
      "translation" : [ 0.191937, 6.1309e-07, -3.87148e-07 ],
      "rotation" : [ -4.52564e-07, -4.16978e-07, -7.60665e-07, -1 ]
    },
    {
      "name" : "Bip001-L-Clavicle",
      "children" : [ 34 ],
      "translation" : [ 0.150525, 0.0260324, 0.00413549 ],
      "rotation" : [ -0.588637, -0.808307, -0.0100271, 0.00680963 ]
    },
    {
      "name" : "Bip001-L-UpperArm",
      "children" : [ 35, 42 ],
      "translation" : [ 0.0781842, 1.26183e-07, 3.33686e-09 ],
      "rotation" : [ 0.00297756, -0.0109434, 0.246134, -0.969169 ]
    },
    {
      "name" : "Bip001-L-Forearm",
      "children" : [ 36, 41 ],
      "translation" : [ 0.187384, -2.01724e-08, -1.24091e-09 ],
      "rotation" : [ -4.21657e-09, 0.0284909, 1.75183e-08, -0.999594 ]
    },
    {
      "name" : "Bip001-L-Hand",
      "children" : [ 37, 39 ],
      "translation" : [ 0.192258, 1.77638e-08, 2.07518e-09 ],
      "rotation" : [ -0.999754, 0.00559307, 0.0213646, 0.00190426 ]
    },
    {
      "name" : "Bip001-L-Finger0",
      "children" : [ 38 ],
      "translation" : [ 0.0688815, -0.0295657, 0.000650686 ],
      "rotation" : [ -0.699606, 0.0824346, 0.086314, -0.70449 ]
    },
    {
      "name" : "Bip001-L-Finger01",
      "translation" : [ 0.0182551, -1.25562e-10, 1.49642e-08 ],
      "rotation" : [ 2.61742e-09, 0.0841715, -4.11753e-09, -0.996451 ]
    },
    {
      "name" : "Bip001-L-Finger1",
      "children" : [ 40 ],
      "translation" : [ 0.0826555, 0.00239957, -0.000844164 ],
      "rotation" : [ 0.0170079, -0.000126333, 0.00779136, -0.999825 ]
    },
    {
      "name" : "Bip001-L-Finger11",
      "translation" : [ 0.0418408, 2.55329e-08, 1.72807e-09 ],
      "rotation" : [ 3.3844e-11, -0.00984189, 7.0296e-09, -0.999952 ]
    },
    {
      "name" : "Bip001-L-ForeTwist",
      "translation" : [ -2.38109e-08, -1.3548e-07, -2.16916e-09 ],
      "rotation" : [ 3.61001e-09, 2.3713e-07, 4.99047e-08, -1 ]
    },
    {
      "name" : "Bip001-LUpArmTwist",
      "translation" : [ -1.18382e-07, -1.24364e-07, -3.11921e-09 ],
      "rotation" : [ 2.28737e-07, 2.42822e-07, -7.24785e-08, -1 ]
    },
    {
      "name" : "Bip001-R-Clavicle",
      "children" : [ 44 ],
      "translation" : [ 0.150525, -0.0260324, 0.00413534 ],
      "rotation" : [ 0.588637, -0.808307, 0.0100248, 0.00680799 ]
    },
    {
      "name" : "Bip001-R-UpperArm",
      "children" : [ 45, 52 ],
      "translation" : [ 0.0781842, 7.13877e-09, 1.20317e-11 ],
      "rotation" : [ -0.00297897, -0.0109422, -0.246134, -0.969169 ]
    },
    {
      "name" : "Bip001-R-Forearm",
      "children" : [ 46, 51 ],
      "translation" : [ 0.187384, -2.60489e-08, 1.02603e-09 ],
      "rotation" : [ 2.11524e-09, 0.0284835, 1.13547e-08, -0.999594 ]
    },
    {
      "name" : "Bip001-R-Hand",
      "children" : [ 47, 49 ],
      "translation" : [ 0.192258, 2.72185e-08, -3.39243e-09 ],
      "rotation" : [ -0.999754, -0.0055931, 0.0213646, -0.00190423 ]
    },
    {
      "name" : "Bip001-R-Finger0",
      "children" : [ 48 ],
      "translation" : [ 0.0688815, 0.0295657, 0.000650685 ],
      "rotation" : [ 0.699606, 0.0824345, -0.086314, -0.70449 ]
    },
    {
      "name" : "Bip001-R-Finger01",
      "translation" : [ 0.0182551, 6.254e-10, 2.30823e-08 ],
      "rotation" : [ -1.87347e-09, 0.0841715, 3.02117e-09, -0.996451 ]
    },
    {
      "name" : "Bip001-R-Finger1",
      "children" : [ 50 ],
      "translation" : [ 0.0826555, -0.00239956, -0.000844164 ],
      "rotation" : [ -0.0170079, -0.000126333, -0.00779136, -0.999825 ]
    },
    {
      "name" : "Bip001-R-Finger11",
      "translation" : [ 0.0418407, -3.53121e-08, 2.42308e-09 ],
      "rotation" : [ 8.30582e-10, -0.00984189, 1.43528e-08, -0.999952 ]
    },
    {
      "name" : "Bip001-R-ForeTwist",
      "translation" : [ -8.17607e-08, -2.53614e-08, -4.19284e-09 ],
      "rotation" : [ -6.77956e-07, 7.17888e-07, 1.99509e-07, -1 ]
    },
    {
      "name" : "Bip001-RUpArmTwist",
      "translation" : [ 4.49641e-08, 1.73813e-07, -1.40108e-08 ],
      "rotation" : [ -1.83352e-07, 2.39977e-07, 1.15836e-07, -1 ]
    },
    {
      "name" : "Bip001-L-Thigh",
      "children" : [ 54 ],
      "translation" : [ 1.05125e-07, 0.0758042, -1.47057e-07 ],
      "rotation" : [ 0.00648344, -3.15908e-06, 0.999945, -0.00827511 ]
    },
    {
      "name" : "Bip001-L-Calf",
      "children" : [ 55 ],
      "translation" : [ 0.378472, 2.42387e-09, 1.01087e-09 ],
      "rotation" : [ 8.76223e-08, 0.0181019, -3.54176e-09, -0.999836 ]
    },
    {
      "name" : "Bip001-L-Foot",
      "children" : [ 56 ],
      "translation" : [ 0.424885, 1.00398e-09, -3.48586e-09 ],
      "rotation" : [ 0.000145232, -0.0245833, 0.0082746, -0.999664 ]
    },
    {
      "name" : "Bip001-L-Toe0",
      "translation" : [ 0.13866, -7.41125e-10, -0.00924571 ],
      "rotation" : [ 2.19406e-08, -0.707107, -1.44766e-08, -0.707107 ]
    },
    {
      "name" : "Bip001-R-Thigh",
      "children" : [ 58 ],
      "translation" : [ -1.05125e-07, -0.0758042, 6.36103e-08 ],
      "rotation" : [ 0.00648342, 4.57831e-06, 0.999945, 0.00827642 ]
    },
    {
      "name" : "Bip001-R-Calf",
      "children" : [ 59 ],
      "translation" : [ 0.378472, -3.17157e-10, 1.37738e-09 ],
      "rotation" : [ -5.15963e-08, 0.0181019, 1.93161e-09, -0.999836 ]
    },
    {
      "name" : "Bip001-R-Foot",
      "children" : [ 60 ],
      "translation" : [ 0.424885, 1.13641e-09, -1.61882e-09 ],
      "rotation" : [ -0.000145222, -0.0245833, -0.00827439, -0.999664 ]
    },
    {
      "name" : "Bip001-R-Toe0",
      "translation" : [ 0.13866, 3.25696e-08, -0.00924571 ],
      "rotation" : [ 7.13873e-08, -0.707107, -7.11332e-08, -0.707107 ]
    },
    {
      "name" : "pendent_m_l_01",
      "children" : [ 62 ],
      "translation" : [ 0.0832879, 7.41685e-08, 0.0363341 ],
      "rotation" : [ 0.178519, 1.28947e-06, 0.983937, 9.10348e-07 ]
    },
    {
      "name" : "pendent_m_l_02",
      "children" : [ 63 ],
      "translation" : [ 0.164426, -5.0313e-09, 6.05704e-07 ],
      "rotation" : [ -3.48553e-08, 0.00278206, 1.55899e-08, -0.999996 ]
    },
    {
      "name" : "pendent_m_l_03",
      "children" : [ 64 ],
      "translation" : [ 0.175084, -1.22339e-15, -7.66988e-09 ],
      "rotation" : [ 1.94773e-07, -0.00342765, -6.67101e-10, -0.999994 ]
    },
    {
      "name" : "pendent_m_l_04",
      "children" : [ 65 ],
      "translation" : [ 0.180199, 1.35398e-15, 1.20351e-08 ],
      "rotation" : [ 5.61062e-07, 0.00181812, 1.02009e-09, -0.999998 ]
    },
    {
      "name" : "pendent_m_l_05",
      "children" : [ 66 ],
      "translation" : [ 0.181061, -1.87109e-15, -5.32088e-08 ],
      "rotation" : [ 1.89798e-06, -0.000252364, -4.78968e-10, -1 ]
    },
    {
      "name" : "pendent_m_l_06",
      "children" : [ 67 ],
      "translation" : [ 0.168839, 1.65827e-14, -1.56441e-08 ],
      "rotation" : [ 1.41427e-06, 0.00220694, 3.12116e-09, -0.999998 ]
    },
    {
      "name" : "pendent_m_l_07",
      "translation" : [ 0.175534, 1.22119e-06, 1.4871e-06 ],
      "rotation" : [ 1.45421e-06, 7.44287e-07, -6.47662e-07, -1 ]
    },
    {
      "name" : "ik_foot_root",
      "children" : [ 69, 70 ],
      "translation" : [ 0, 0, -0 ],
      "rotation" : [ -0, -0, 0, -1 ]
    },
    {
      "name" : "ik_foot_l",
      "translation" : [ 0.0625137, 0.138446, -0.0141944 ],
      "rotation" : [ -0.70711, 0.707103, -3.37948e-07, 3.37951e-07 ]
    },
    {
      "name" : "ik_foot_r",
      "translation" : [ -0.0625152, 0.138446, -0.0141875 ],
      "rotation" : [ -0.70711, 0.707104, 6.55455e-07, -6.55461e-07 ]
    },
    {
      "name" : "ik_hand_root",
      "children" : [ 72 ],
      "translation" : [ 0, 0, -0 ],
      "rotation" : [ -0, -0, 0, -1 ]
    },
    {
      "name" : "ik_hand_gun",
      "children" : [ 73, 74, 75 ],
      "translation" : [ -0.362294, 1.02818, 0.012158 ],
      "rotation" : [ 0.398887, -0.916773, 0.0175539, -0.0104394 ]
    },
    {
      "name" : "ik_hand_r",
      "translation" : [ 3.8147e-08, 7.62939e-08, -1.71661e-07 ],
      "rotation" : [ 2.63564e-07, -3.7253e-09, 4.47035e-08, -1 ]
    },
    {
      "name" : "ik_hand_l",
      "translation" : [ -0.49382, -0.529677, 0.0240175 ],
      "rotation" : [ 0.0331418, 6.62865e-06, 0.68162, -0.730955 ]
    },
    {
      "name" : "SocketADS",
      "translation" : [ 0, 0, -0 ],
      "rotation" : [ 1.86264e-09, 8.6613e-08, 7.45058e-08, -1 ]
    }
  ],
  "skins" : [
    {
      "inverseBindMatrices" : 0,
      "skeleton" : 1,
      "joints" : [
        1,2,3,4,5,6,7,8,9,10,11,12,13,14,15,16,17,18,19,20,21,22,23,24,25,26,27,28,29,30,31,32,
        33,34,35,36,37,38,39,40,41,42,43,44,45,46,47,48,49,50,51,52,53,54,55,56,57,58,59,60,61,62,63,64,
        65,66,67,68,69,70,71,72,73,74,75
      ]
    }
  ],
  "materials" : [
    {
      "name" : "MI_Cielle_PPM_S210",
      "pbrMetallicRoughness" : {
        "baseColorFactor" : [ 0.3, 0.3, 0.3, 1.0 ],
        "metallicFactor" : 0.1,
        "roughnessFactor" : 0.5
      }
    }
  ],
  "meshes" : [
    {
      "primitives" : [
        {
          "attributes" : {
            "POSITION" : 2,
            "NORMAL" : 3,
            "TANGENT" : 4,
            "COLOR_0" : 5,
            "JOINTS_0" : 6,
            "WEIGHTS_0" : 7,
            "JOINTS_1" : 8,
            "WEIGHTS_1" : 9,
            "JOINTS_2" : 10,
            "WEIGHTS_2" : 11,
            "TEXCOORD_0" : 12
          },
          "indices" : 1,
          "material" : 0
        }
      ],
      "name" : "SK_Cielle_PPM_S210"
    }
  ],
  "buffers" : [
    {
      "uri" : "SK_Cielle_PPM_S210.bin",
      "byteLength" : 219332
    }
  ],
  "bufferViews" : [
    {
      "buffer" : 0,
      "byteOffset" : 0,
      "byteLength" : 4800
    },
    {
      "buffer" : 0,
      "byteOffset" : 4800,
      "byteLength" : 15476
    },
    {
      "buffer" : 0,
      "byteOffset" : 20276,
      "byteLength" : 27144
    },
    {
      "buffer" : 0,
      "byteOffset" : 47420,
      "byteLength" : 27144
    },
    {
      "buffer" : 0,
      "byteOffset" : 74564,
      "byteLength" : 36192
    },
    {
      "buffer" : 0,
      "byteOffset" : 110756,
      "byteLength" : 9048
    },
    {
      "buffer" : 0,
      "byteOffset" : 119804,
      "byteLength" : 18096
    },
    {
      "buffer" : 0,
      "byteOffset" : 137900,
      "byteLength" : 9048
    },
    {
      "buffer" : 0,
      "byteOffset" : 146948,
      "byteLength" : 18096
    },
    {
      "buffer" : 0,
      "byteOffset" : 165044,
      "byteLength" : 9048
    },
    {
      "buffer" : 0,
      "byteOffset" : 174092,
      "byteLength" : 18096
    },
    {
      "buffer" : 0,
      "byteOffset" : 192188,
      "byteLength" : 9048
    },
    {
      "buffer" : 0,
      "byteOffset" : 201236,
      "byteLength" : 18096
    }
  ],
  "accessors" : [
    {
      "bufferView" : 0,
      "componentType" : 5126,
      "count" : 75,
      "type" : "MAT4"
    },
    {
      "bufferView" : 1,
      "componentType" : 5123,
      "count" : 7737,
      "type" : "SCALAR"
    },
    {
      "bufferView" : 2,
      "min" : [ -0.487177, -3.10001e-05, -0.418331 ],
      "max" : [ 0.522079, 1.62128, 0.040223 ],
      "componentType" : 5126,
      "count" : 2262,
      "type" : "VEC3"
    },
    {
      "bufferView" : 3,
      "componentType" : 5126,
      "count" : 2262,
      "type" : "VEC3"
    },
    {
      "bufferView" : 4,
      "componentType" : 5126,
      "count" : 2262,
      "type" : "VEC4"
    },
    {
      "bufferView" : 5,
      "normalized" : true,
      "componentType" : 5121,
      "count" : 2262,
      "type" : "VEC4"
    },
    {
      "bufferView" : 6,
      "componentType" : 5123,
      "count" : 2262,
      "type" : "VEC4"
    },
    {
      "bufferView" : 7,
      "normalized" : true,
      "componentType" : 5121,
      "count" : 2262,
      "type" : "VEC4"
    },
    {
      "bufferView" : 8,
      "componentType" : 5123,
      "count" : 2262,
      "type" : "VEC4"
    },
    {
      "bufferView" : 9,
      "normalized" : true,
      "componentType" : 5121,
      "count" : 2262,
      "type" : "VEC4"
    },
    {
      "bufferView" : 10,
      "componentType" : 5123,
      "count" : 2262,
      "type" : "VEC4"
    },
    {
      "bufferView" : 11,
      "normalized" : true,
      "componentType" : 5121,
      "count" : 2262,
      "type" : "VEC4"
    },
    {
      "bufferView" : 12,
      "componentType" : 5126,
      "count" : 2262,
      "type" : "VEC2"
    }
  ]
}
