{
  "asset" : {
    "generator" : "UE Viewer (umodel) build 1579 based",
    "version" : "2.0"
  },
  "scene" : 0,
  "scenes" : [
    {
      "nodes" : [ 0 ]
    }
  ],
  "nodes" : [
    {
      "name" : "SM_Posui_NB_002",
      "mesh" : 0,
      "skin" : 0,
      "children" : [ 1 ]
    },
    {
      "name" : "joint1",
      "children" : [ 2, 3, 4, 5, 6, 7, 8, 9, 10, 11, 12, 13, 14, 15, 16, 17, 18, 19, 20, 21, 22, 23, 24, 25, 26, 27, 28, 29, 30, 31, 32, 33, 34, 35, 36, 37, 38, 39, 40, 41, 42, 43, 44, 45, 46, 47, 48, 49, 50, 51, 52, 53, 54, 55, 56, 57, 58, 59, 60, 61, 62, 63, 64, 65 ],
      "translation" : [ 0.000383151, -0.0204773, -7.94093e-25 ],
      "rotation" : [ 0.316568, 0.632285, -0.632285, -0.316568 ]
    },
    {
      "name" : "joint2",
      "translation" : [ 0.142382, -1.70404e-17, 8.0508e-08 ],
      "rotation" : [ -0.447695, -3.96877e-15, 0.894186, 3.82232e-15 ]
    },
    {
      "name" : "joint4",
      "translation" : [ 0.120668, 5.98633e-16, -0.0204578 ],
      "rotation" : [ 0.0809667, -4.58478e-15, 0.996717, -8.3491e-16 ]
    },
    {
      "name" : "joint5",
      "translation" : [ 0.0945479, -4.31097e-17, -0.0161861 ],
      "rotation" : [ -0.447695, -3.96877e-15, 0.894186, 3.82232e-15 ]
    },
    {
      "name" : "joint6",
      "translation" : [ 0.089095, -2.48375e-16, 0.0228218 ],
      "rotation" : [ -2.24431e-15, 0.638406, 2.17242e-15, -0.7697 ]
    },
    {
      "name" : "joint7",
      "translation" : [ 0.0933285, -3.11813e-16, 0.0453264 ],
      "rotation" : [ 1.03134e-15, 0.637196, -1.35333e-16, -0.770701 ]
    },
    {
      "name" : "joint38",
      "translation" : [ 0.0414393, -3.80397e-16, -0.101512 ],
      "rotation" : [ -0.447695, -3.96877e-15, 0.894186, 3.82232e-15 ]
    },
    {
      "name" : "joint39",
      "translation" : [ 0.0410523, 7.34975e-16, -0.117038 ],
      "rotation" : [ -0.447695, -3.96877e-15, 0.894186, 3.82232e-15 ]
    },
    {
      "name" : "joint40",
      "translation" : [ 0.0443717, -1.00432e-17, -0.1319 ],
      "rotation" : [ -0.447695, -3.96877e-15, 0.894186, 3.82232e-15 ]
    },
    {
      "name" : "joint41",
      "translation" : [ 0.0289348, 1.13356e-15, -0.135693 ],
      "rotation" : [ -0.447695, -3.96877e-15, 0.894186, 3.82232e-15 ]
    },
    {
      "name" : "joint42",
      "translation" : [ 0.0150175, 7.07491e-16, -0.122548 ],
      "rotation" : [ -0.447695, -3.96877e-15, 0.894186, 3.82232e-15 ]
    },
    {
      "name" : "joint43",
      "translation" : [ 0.0253298, 9.016e-16, -0.11716 ],
      "rotation" : [ -0.447695, -3.96877e-15, 0.894186, 3.82232e-15 ]
    },
    {
      "name" : "joint44",
      "translation" : [ 0.0300877, 2.93747e-16, -0.110072 ],
      "rotation" : [ -0.447695, -3.96877e-15, 0.894186, 3.82232e-15 ]
    },
    {
      "name" : "joint45",
      "translation" : [ 0.017792, 7.66527e-16, -0.100598 ],
      "rotation" : [ -0.447695, -3.96877e-15, 0.894186, 3.82232e-15 ]
    },
    {
      "name" : "joint46",
      "translation" : [ 0.00241231, 8.8551e-17, -0.109839 ],
      "rotation" : [ -0.447695, -3.96877e-15, 0.894186, 3.82232e-15 ]
    },
    {
      "name" : "joint47",
      "translation" : [ -0.00470665, 1.0152e-15, -0.116798 ],
      "rotation" : [ -0.447695, -3.96877e-15, 0.894186, 3.82232e-15 ]
    },
    {
      "name" : "joint48",
      "translation" : [ -0.0129886, 1.74628e-16, -0.0994066 ],
      "rotation" : [ -0.447695, -3.96877e-15, 0.894186, 3.82232e-15 ]
    },
    {
      "name" : "joint49",
      "translation" : [ -0.0122169, 6.44682e-17, -0.0852403 ],
      "rotation" : [ -0.447695, -3.96877e-15, 0.894186, 3.82232e-15 ]
    },
    {
      "name" : "joint50",
      "translation" : [ 0.00396751, 1.48901e-16, -0.0924368 ],
      "rotation" : [ -0.447695, -3.96877e-15, 0.894186, 3.82232e-15 ]
    },
    {
      "name" : "joint51",
      "translation" : [ 0.00925047, 4.41229e-16, -0.0857418 ],
      "rotation" : [ -0.447695, -3.96877e-15, 0.894186, 3.82232e-15 ]
    },
    {
      "name" : "joint60",
      "translation" : [ 0.000970916, 4.27692e-16, -0.070536 ],
      "rotation" : [ -0.447695, -3.96877e-15, 0.894186, 3.82232e-15 ]
    },
    {
      "name" : "joint63",
      "translation" : [ -0.0300944, 6.29451e-16, -0.0890633 ],
      "rotation" : [ -0.447695, -3.96877e-15, 0.894186, 3.82232e-15 ]
    },
    {
      "name" : "joint64",
      "translation" : [ -0.0277058, -1.55538e-16, -0.0741957 ],
      "rotation" : [ -0.447695, -3.96877e-15, 0.894186, 3.82232e-15 ]
    },
    {
      "name" : "joint3",
      "translation" : [ 0.123236, 2.09727e-16, 0.0126031 ],
      "rotation" : [ -0.447695, -3.96877e-15, 0.894186, 3.82232e-15 ]
    },
    {
      "name" : "joint8",
      "translation" : [ 0.0693275, -6.78188e-16, 0.0417402 ],
      "rotation" : [ -0.447695, -3.96877e-15, 0.894186, 3.82232e-15 ]
    },
    {
      "name" : "joint9",
      "translation" : [ 0.0554301, -1.97763e-16, 0.0289887 ],
      "rotation" : [ -0.447695, -3.96877e-15, 0.894186, 3.82232e-15 ]
    },
    {
      "name" : "joint10",
      "translation" : [ 0.0573891, -9.13453e-17, 0.0162909 ],
      "rotation" : [ -0.447695, -3.96877e-15, 0.894186, 3.82232e-15 ]
    },
    {
      "name" : "joint11",
      "translation" : [ 0.0649599, -2.58441e-16, 0.00741651 ],
      "rotation" : [ -0.447695, -3.96877e-15, 0.894186, 3.82232e-15 ]
    },
    {
      "name" : "joint12",
      "translation" : [ 0.0754684, 2.03347e-16, -0.00273939 ],
      "rotation" : [ -0.447695, -3.96877e-15, 0.894186, 3.82232e-15 ]
    },
    {
      "name" : "joint13",
      "translation" : [ 0.0625295, 2.0667e-16, -0.0194173 ],
      "rotation" : [ -0.447695, -3.96877e-15, 0.894186, 3.82232e-15 ]
    },
    {
      "name" : "joint14",
      "translation" : [ 0.0445361, 9.44092e-17, -0.0119122 ],
      "rotation" : [ -0.447695, -3.96877e-15, 0.894186, 3.82232e-15 ]
    },
    {
      "name" : "joint15",
      "translation" : [ 0.0413616, -1.19556e-16, 0.00467494 ],
      "rotation" : [ -0.447695, -3.96877e-15, 0.894186, 3.82232e-15 ]
    },
    {
      "name" : "joint16",
      "translation" : [ 0.043256, -1.66687e-16, 0.0179274 ],
      "rotation" : [ -0.447695, -3.96877e-15, 0.894186, 3.82232e-15 ]
    },
    {
      "name" : "joint17",
      "translation" : [ 0.030474, -7.80535e-17, -0.00803665 ],
      "rotation" : [ -0.447695, -3.96877e-15, 0.894186, 3.82232e-15 ]
    },
    {
      "name" : "joint18",
      "translation" : [ 0.0149653, 5.82521e-17, -0.0241667 ],
      "rotation" : [ -0.447695, -3.96877e-15, 0.894186, 3.82232e-15 ]
    },
    {
      "name" : "joint19",
      "translation" : [ 0.0293533, -8.89769e-17, -0.023931 ],
      "rotation" : [ -0.447695, -3.96877e-15, 0.894186, 3.82232e-15 ]
    },
    {
      "name" : "joint20",
      "translation" : [ 0.0383515, 5.22568e-18, -0.02906 ],
      "rotation" : [ -0.447695, -3.96877e-15, 0.894186, 3.82232e-15 ]
    },
    {
      "name" : "joint21",
      "translation" : [ 0.0505054, 4.92347e-18, -0.0333414 ],
      "rotation" : [ -0.447695, -3.96877e-15, 0.894186, 3.82232e-15 ]
    },
    {
      "name" : "joint22",
      "translation" : [ 0.0545728, -9.44214e-17, -0.0269871 ],
      "rotation" : [ -0.447695, -3.96877e-15, 0.894186, 3.82232e-15 ]
    },
    {
      "name" : "joint23",
      "translation" : [ 0.0763796, 6.564e-17, -0.0309277 ],
      "rotation" : [ -0.447695, -3.96877e-15, 0.894186, 3.82232e-15 ]
    },
    {
      "name" : "joint24",
      "translation" : [ 0.0875898, 7.26314e-17, -0.0450469 ],
      "rotation" : [ -0.447695, -3.96877e-15, 0.894186, 3.82232e-15 ]
    },
    {
      "name" : "joint25",
      "translation" : [ 0.0984972, 2.93701e-16, -0.0506877 ],
      "rotation" : [ -0.447695, -3.96877e-15, 0.894186, 3.82232e-15 ]
    },
    {
      "name" : "joint26",
      "translation" : [ 0.107884, 7.35172e-17, -0.0421254 ],
      "rotation" : [ -0.447695, -3.96877e-15, 0.894186, 3.82232e-15 ]
    },
    {
      "name" : "joint27",
      "translation" : [ 0.113013, 2.69401e-16, -0.0331272 ],
      "rotation" : [ -0.447695, -3.96877e-15, 0.894186, 3.82232e-15 ]
    },
    {
      "name" : "joint28",
      "translation" : [ 0.0778516, 2.18864e-16, -0.0684751 ],
      "rotation" : [ -0.447695, -3.96877e-15, 0.894186, 3.82232e-15 ]
    },
    {
      "name" : "joint29",
      "translation" : [ 0.0927544, 2.30096e-16, -0.069083 ],
      "rotation" : [ -0.447695, -3.96877e-15, 0.894186, 3.82232e-15 ]
    },
    {
      "name" : "joint30",
      "translation" : [ 0.0673361, 5.89441e-17, -0.0518958 ],
      "rotation" : [ -0.447695, -3.96877e-15, 0.894186, 3.82232e-15 ]
    },
    {
      "name" : "joint31",
      "translation" : [ 0.0782337, 1.97029e-16, -0.0483605 ],
      "rotation" : [ -0.447695, -3.96877e-15, 0.894186, 3.82232e-15 ]
    },
    {
      "name" : "joint32",
      "translation" : [ 0.0662957, 1.25541e-16, -0.0401147 ],
      "rotation" : [ -0.447695, -3.96877e-15, 0.894186, 3.82232e-15 ]
    },
    {
      "name" : "joint33",
      "translation" : [ 0.0590717, 4.565e-17, -0.046399 ],
      "rotation" : [ -0.447695, -3.96877e-15, 0.894186, 3.82232e-15 ]
    },
    {
      "name" : "joint34",
      "translation" : [ 0.0550363, 1.357e-18, -0.0484221 ],
      "rotation" : [ -0.447695, -3.96877e-15, 0.894186, 3.82232e-15 ]
    },
    {
      "name" : "joint35",
      "translation" : [ 0.0519235, -5.59515e-17, -0.0550324 ],
      "rotation" : [ -0.447695, -3.96877e-15, 0.894186, 3.82232e-15 ]
    },
    {
      "name" : "joint36",
      "translation" : [ 0.0475751, 8.00399e-16, -0.0730958 ],
      "rotation" : [ -0.447695, -3.96877e-15, 0.894186, 3.82232e-15 ]
    },
    {
      "name" : "joint37",
      "translation" : [ 0.0615441, 3.03493e-16, -0.0927178 ],
      "rotation" : [ -0.447695, -3.96877e-15, 0.894186, 3.82232e-15 ]
    },
    {
      "name" : "joint52",
      "translation" : [ 0.0129582, -4.80301e-17, -0.0778682 ],
      "rotation" : [ -0.447695, -3.96877e-15, 0.894186, 3.82232e-15 ]
    },
    {
      "name" : "joint53",
      "translation" : [ 0.0268696, -5.20056e-17, -0.085548 ],
      "rotation" : [ -0.447695, -3.96877e-15, 0.894186, 3.82232e-15 ]
    },
    {
      "name" : "joint54",
      "translation" : [ 0.0296976, -2.32374e-16, -0.0726474 ],
      "rotation" : [ -0.447695, -3.96877e-15, 0.894186, 3.82232e-15 ]
    },
    {
      "name" : "joint55",
      "translation" : [ 0.038518, 2.95799e-16, -0.0623198 ],
      "rotation" : [ -0.447695, -3.96877e-15, 0.894186, 3.82232e-15 ]
    },
    {
      "name" : "joint56",
      "translation" : [ 0.0406053, 3.38188e-16, -0.0518684 ],
      "rotation" : [ -0.447695, -3.96877e-15, 0.894186, 3.82232e-15 ]
    },
    {
      "name" : "joint57",
      "translation" : [ 0.0437416, -4.47096e-17, -0.0411097 ],
      "rotation" : [ -0.447695, -3.96877e-15, 0.894186, 3.82232e-15 ]
    },
    {
      "name" : "joint58",
      "translation" : [ 0.027962, 1.4999e-16, -0.0443183 ],
      "rotation" : [ -0.447695, -3.96877e-15, 0.894186, 3.82232e-15 ]
    },
    {
      "name" : "joint59",
      "translation" : [ 0.0154696, 2.99167e-16, -0.0551745 ],
      "rotation" : [ -0.447695, -3.96877e-15, 0.894186, 3.82232e-15 ]
    },
    {
      "name" : "joint61",
      "translation" : [ 0.0160969, 4.69239e-16, -0.0692955 ],
      "rotation" : [ -0.447695, -3.96877e-15, 0.894186, 3.82232e-15 ]
    },
    {
      "name" : "joint65",
      "translation" : [ 0.0587291, -9.69723e-17, -0.0391376 ],
      "rotation" : [ -0.447695, -3.96877e-15, 0.894186, 3.82232e-15 ]
    },
    {
      "name" : "joint62",
      "translation" : [ -0.00926971, 3.52266e-17, -0.0612346 ],
      "rotation" : [ -0.447695, -3.96877e-15, 0.894186, 3.82232e-15 ]
    }
  ],
  "skins" : [
    {
      "inverseBindMatrices" : 0,
      "skeleton" : 1,
      "joints" : [
        1,2,3,4,5,6,7,8,9,10,11,12,13,14,15,16,17,18,19,20,21,22,23,24,25,26,27,28,29,30,31,32,
        33,34,35,36,37,38,39,40,41,42,43,44,45,46,47,48,49,50,51,52,53,54,55,56,57,58,59,60,61,62,63,64,
        65
      ]
    }
  ],
  "materials" : [
    {
      "name" : "MI_Posui_NB_002",
      "pbrMetallicRoughness" : {
        "baseColorFactor" : [ 0.3, 0.3, 0.3, 1.0 ],
        "metallicFactor" : 0.1,
        "roughnessFactor" : 0.5
      }
    }
  ],
  "meshes" : [
    {
      "primitives" : [
        {
          "attributes" : {
            "POSITION" : 2,
            "NORMAL" : 3,
            "TANGENT" : 4,
            "COLOR_0" : 5,
            "JOINTS_0" : 6,
            "WEIGHTS_0" : 7,
            "JOINTS_1" : 8,
            "WEIGHTS_1" : 9,
            "JOINTS_2" : 10,
            "WEIGHTS_2" : 11,
            "TEXCOORD_0" : 12
          },
          "indices" : 1,
          "material" : 0
        }
      ],
      "name" : "SM_Posui_NB_002"
    }
  ],
  "buffers" : [
    {
      "uri" : "SM_Posui_NB_002.bin",
      "byteLength" : 206840
    }
  ],
  "bufferViews" : [
    {
      "buffer" : 0,
      "byteOffset" : 0,
      "byteLength" : 4160
    },
    {
      "buffer" : 0,
      "byteOffset" : 4160,
      "byteLength" : 7320
    },
    {
      "buffer" : 0,
      "byteOffset" : 11480,
      "byteLength" : 26640
    },
    {
      "buffer" : 0,
      "byteOffset" : 38120,
      "byteLength" : 26640
    },
    {
      "buffer" : 0,
      "byteOffset" : 64760,
      "byteLength" : 35520
    },
    {
      "buffer" : 0,
      "byteOffset" : 100280,
      "byteLength" : 8880
    },
    {
      "buffer" : 0,
      "byteOffset" : 109160,
      "byteLength" : 17760
    },
    {
      "buffer" : 0,
      "byteOffset" : 126920,
      "byteLength" : 8880
    },
    {
      "buffer" : 0,
      "byteOffset" : 135800,
      "byteLength" : 17760
    },
    {
      "buffer" : 0,
      "byteOffset" : 153560,
      "byteLength" : 8880
    },
    {
      "buffer" : 0,
      "byteOffset" : 162440,
      "byteLength" : 17760
    },
    {
      "buffer" : 0,
      "byteOffset" : 180200,
      "byteLength" : 8880
    },
    {
      "buffer" : 0,
      "byteOffset" : 189080,
      "byteLength" : 17760
    }
  ],
  "accessors" : [
    {
      "bufferView" : 0,
      "componentType" : 5126,
      "count" : 65,
      "type" : "MAT4"
    },
    {
      "bufferView" : 1,
      "componentType" : 5123,
      "count" : 3660,
      "type" : "SCALAR"
    },
    {
      "bufferView" : 2,
      "min" : [ -0.1, -1.11022e-18, -0.0005 ],
      "max" : [ 0.1, 0.1, 0.0005 ],
      "componentType" : 5126,
      "count" : 2220,
      "type" : "VEC3"
    },
    {
      "bufferView" : 3,
      "componentType" : 5126,
      "count" : 2220,
      "type" : "VEC3"
    },
    {
      "bufferView" : 4,
      "componentType" : 5126,
      "count" : 2220,
      "type" : "VEC4"
    },
    {
      "bufferView" : 5,
      "normalized" : true,
      "componentType" : 5121,
      "count" : 2220,
      "type" : "VEC4"
    },
    {
      "bufferView" : 6,
      "componentType" : 5123,
      "count" : 2220,
      "type" : "VEC4"
    },
    {
      "bufferView" : 7,
      "normalized" : true,
      "componentType" : 5121,
      "count" : 2220,
      "type" : "VEC4"
    },
    {
      "bufferView" : 8,
      "componentType" : 5123,
      "count" : 2220,
      "type" : "VEC4"
    },
    {
      "bufferView" : 9,
      "normalized" : true,
      "componentType" : 5121,
      "count" : 2220,
      "type" : "VEC4"
    },
    {
      "bufferView" : 10,
      "componentType" : 5123,
      "count" : 2220,
      "type" : "VEC4"
    },
    {
      "bufferView" : 11,
      "normalized" : true,
      "componentType" : 5121,
      "count" : 2220,
      "type" : "VEC4"
    },
    {
      "bufferView" : 12,
      "componentType" : 5126,
      "count" : 2220,
      "type" : "VEC2"
    }
  ]
}
